# xmcd
#
# Track frame offsets:
#	150
#	13762
#	36842
#	48937
#	71905
#	108075
#	136550
#	153550
#	178677
#	197085
#	217642
#
# Disc length: 3111 seconds
#
# Revision: 8
# Processed by: cddbd v1.5PL3 Copyright (c) Steve Scherf et al.
# Submitted via: CDex 1.50Beta5
#
DISCID=8d0c250b
DTITLE=たま - さんだる
DYEAR=1997
DGENRE=New Age
TTITLE0=方向音痴
TTITLE1=おるがん
TTITLE2=オゾンのダンス
TTITLE3=日本でよかった
TTITLE4=学校にまにあわない
TTITLE5=どんぶらこ
TTITLE6=ロシヤのパン
TTITLE7=さよなら人類
TTITLE8=ワルツおぼえて
TTITLE9=らんちう
TTITLE10=れいこおばさんの空中遊泳
EXTD=
EXTT0=
EXTT1=
EXTT2=
EXTT3=
EXTT4=
EXTT5=
EXTT6=
EXTT7=
EXTT8=
EXTT9=
EXTT10=
PLAYORDER=
